<svg xmlns="http://www.w3.org/2000/svg" viewBox="0 0 466 465.84"><defs><style>.cls-1{fill:#1d1d1b}</style></defs><g id="Capa_2" data-name="Capa 2"><g id="Capa_1-2" data-name="Capa 1"><path d="M233 326.84h-94v-94a124.14 124.14 0 0 0-124-124 15 15 0 0 0 0 30 94.15 94.15 0 0 1 92.81 79.05H15a15 15 0 0 0 0 30h94v79H15a15 15 0 0 0 0 30h94v94a15 15 0 0 0 30 0v-94h78.94v94a15 15 0 0 0 30 0V358A94.14 94.14 0 0 1 327 450.84a15 15 0 0 0 30 0 124.15 124.15 0 0 0-124-124ZM466 232.79a15 15 0 0 0-15-15h-94v-78.94h94a15 15 0 0 0 0-30h-94V15a15 15 0 0 0-30 0v94h-78.95V15a15 15 0 0 0-30 0v92.81A94.15 94.15 0 0 1 139 15a15 15 0 0 0-30 0 124.14 124.14 0 0 0 124 124h94v93.85a124.14 124.14 0 0 0 124 124 15 15 0 0 0 0-30 94.14 94.14 0 0 1-92.81-79.06H451a15 15 0 0 0 15-15Z" class="cls-1"/></g></g></svg>